Jump_normalized_Motion_pl08
version=1
nRows=25
nColumns=43
inDegrees=yes
endheader
time		pelvis_tilt		pelvis_list		pelvis_rotation		pelvis_tx		pelvis_ty		pelvis_tz		hip_flexion_r		hip_adduction_r		hip_rotation_r		knee_angle_r		ankle_angle_r		subtalar_angle_r		mtp_angle_r		hip_flexion_l		hip_adduction_l		hip_rotation_l		knee_angle_l		ankle_angle_l		subtalar_angle_l		mtp_angle_l		lumbar_extension		lumbar_bending		lumbar_rotation		neck_flexion		neck_lateral_bending		neck_rotation		arm_flex_r		arm_add_r		arm_rot_r		elbow_flex_r		pro_sup_r		wrist_flex_r		wrist_dev_r		hand_finger_flex_r		arm_flex_l		arm_add_l		arm_rot_l		elbow_flex_l		pro_sup_l		wrist_flex_l		wrist_dev_l		hand_finger_flex_l		
1.115000		-3.358317		-11.659190		95.973430		0.008767		1.767669		1.864079		73.937084		-7.485121		10.648480		-135.270334		27.893027		-6.617283		1.100696		74.306384		1.474497		7.650851		-130.603537		30.882539		-16.308817		-1.554644		-53.259789		0.897115		-2.761792		33.212855		0.101516		-4.094717		67.109368		-23.454160		20.932952		59.487600		69.102237		-40.196154		11.936954		43.042252		68.476913		-14.171907		10.185288		74.221770		110.491244		-15.548731		24.477209		88.187455		
1.117778		-3.350699		-11.817091		95.960969		0.008769		1.767451		1.862770		73.949487		-7.481835		10.626161		-135.280753		27.882709		-6.639907		0.985434		74.334568		1.452795		7.667477		-130.651007		30.866653		-16.317527		-1.462487		-53.147823		0.881061		-2.758938		33.290767		0.127334		-4.116129		68.309811		-23.535216		21.725633		59.779067		68.777360		-40.232404		11.856435		42.971663		69.621352		-14.072830		10.772040		74.189427		110.338844		-15.819691		24.417410		88.157492		
1.120556		-3.346653		-11.980612		95.946904		0.008731		1.767311		1.861442		73.957298		-7.477898		10.623345		-135.289562		27.871637		-6.654088		0.888228		74.366268		1.434774		7.654764		-130.681592		30.839692		-16.335836		-1.382414		-53.033109		0.864281		-2.751313		33.383798		0.158932		-4.133900		69.516476		-23.574377		22.441923		60.031747		68.512455		-40.259295		11.756972		42.889738		70.773667		-13.962839		11.348056		74.161033		110.238536		-16.055974		24.354418		88.130473		
1.123333		-3.349185		-12.163753		95.929697		0.008742		1.767212		1.860070		73.976327		-7.475507		10.613781		-135.284484		27.859293		-6.658608		0.815795		74.406211		1.414184		7.644581		-130.700756		30.814626		-16.364840		-1.323172		-52.904490		0.837026		-2.765120		33.505143		0.177140		-4.144456		70.702869		-23.511928		22.997307		60.253149		68.345580		-40.258734		11.657541		42.824499		71.918582		-13.820712		11.828142		74.117383		110.183044		-16.236515		24.292965		88.099817		
1.126111		-3.350172		-12.344193		95.906006		0.008749		1.767154		1.858668		73.989250		-7.468486		10.597325		-135.276595		27.832639		-6.663380		0.756653		74.440646		1.399599		7.636023		-130.720155		30.777527		-16.409081		-1.281993		-52.774359		0.806755		-2.781044		33.596517		0.205996		-4.150630		71.900153		-23.410788		23.513402		60.441622		68.285083		-40.200416		11.576826		42.790231		73.065416		-13.695672		12.315926		74.080589		110.153652		-16.359537		24.231219		88.067185		
1.128889		-3.339846		-12.519664		95.886780		0.008688		1.767163		1.857233		73.991206		-7.451678		10.589133		-135.256919		27.798147		-6.673362		0.691689		74.453076		1.386062		7.624972		-130.727956		30.731303		-16.464575		-1.240635		-52.648105		0.789931		-2.789536		33.656720		0.240032		-4.154014		73.120871		-23.307583		24.037461		60.605702		68.237322		-40.130294		11.494240		42.764219		74.210419		-13.578357		12.832230		74.058368		110.110963		-16.484260		24.168965		88.038841		
1.131667		-3.314873		-12.681951		95.865807		0.008614		1.767200		1.855774		73.974271		-7.427154		10.558574		-135.239871		27.745134		-6.697494		0.613217		74.453563		1.378760		7.631157		-130.741223		30.669508		-16.549090		-1.200905		-52.530663		0.784192		-2.788188		33.708518		0.280602		-4.139235		74.385246		-23.179348		24.576250		60.707127		68.246573		-39.996102		11.421458		42.776230		75.381780		-13.504609		13.414931		74.030504		110.042171		-16.586082		24.112060		88.027236		
1.134444		-3.287111		-12.884750		95.848076		0.008535		1.767270		1.854295		73.983836		-7.406089		10.530902		-135.195685		27.709321		-6.714955		0.554051		74.481994		1.380866		7.643889		-130.732055		30.641785		-16.618949		-1.170431		-52.381294		0.782781		-2.786770		33.828123		0.284483		-4.115140		75.593780		-22.961457		24.905133		60.809614		68.272040		-39.882316		11.347995		42.787282		76.522917		-13.342089		13.838473		73.994167		109.993450		-16.658465		24.060144		88.012366		
1.137222		-3.240831		-13.028497		95.825025		0.008411		1.767377		1.852744		73.927958		-7.364261		10.477465		-135.165396		27.638437		-6.770825		0.448252		74.441902		1.372179		7.671803		-130.742587		30.573459		-16.735305		-1.127674		-52.274927		0.797130		-2.768754		33.837299		0.335052		-4.076679		76.899077		-22.835317		25.485365		60.879994		68.341071		-39.628035		11.306549		42.852699		77.716979		-13.324287		14.499645		73.983357		109.863896		-16.703230		24.021819		88.049959		
1.140000		-3.209519		-13.267922		95.806972		0.008285		1.767501		1.851149		73.943303		-7.341050		10.456848		-135.084278		27.622195		-6.788751		0.403433		74.468546		1.375561		7.686802		-130.699551		30.581089		-16.792088		-1.105662		-52.088167		0.802115		-2.769489		33.984144		0.312800		-4.043864		78.037470		-22.549054		25.633438		61.016279		68.383217		-39.509121		11.242652		42.866773		78.814757		-13.094385		14.774649		73.956647		109.824462		-16.727026		23.979412		88.046520		
1.142778		-3.186167		-13.485945		95.774746		0.008171		1.767645		1.849542		73.941516		-7.308984		10.433117		-135.011595		27.586523		-6.814666		0.346243		74.467297		1.366692		7.693374		-130.671664		30.580752		-16.871943		-1.084477		-51.919880		0.790376		-2.756362		34.099703		0.334869		-4.009419		79.264268		-22.359169		25.991027		61.131387		68.442834		-39.296342		11.226642		42.891879		80.006044		-12.966531		15.267178		73.908173		109.788697		-16.675095		23.944788		88.068997		
1.145556		-3.171976		-13.606376		95.708260		0.008063		1.767942		1.847804		73.825251		-7.260700		10.416769		-134.956862		27.538781		-6.882944		0.235921		74.342278		1.332562		7.664366		-130.653237		30.548811		-17.003956		-1.049563		-51.849595		0.761677		-2.742842		34.100973		0.399018		-3.972277		80.580626		-22.268850		26.588755		61.273828		68.458110		-38.961594		11.221362		42.925422		81.218029		-12.941996		15.870835		73.921495		109.611437		-16.609451		23.920994		88.162909		
1.148333		-3.176407		-13.825718		95.654280		0.007961		1.768236		1.846052		73.791328		-7.237513		10.431499		-134.860139		27.536156		-6.897821		0.179992		74.293943		1.305485		7.617790		-130.584685		30.574530		-17.086376		-1.029642		-51.689753		0.721842		-2.755571		34.231024		0.411479		-3.946880		81.759910		-22.040171		26.843393		61.445708		68.428811		-38.795860		11.166108		42.899322		82.368063		-12.750436		16.182674		73.895546		109.537320		-16.582738		23.873398		88.190753		
1.151111		-3.230858		-13.951335		95.545523		0.007908		1.768655		1.844208		73.668303		-7.198984		10.493521		-134.776898		27.517846		-6.918934		0.067237		74.126664		1.256688		7.495578		-130.529137		30.578474		-17.241121		-1.000398		-51.633935		0.617200		-2.767393		34.314342		0.487783		-3.923086		83.084770		-21.960794		27.443537		61.590374		68.277262		-38.509576		11.108890		42.827462		83.631965		-12.697527		16.750938		73.866065		109.342691		-16.524306		23.810181		88.281592		
1.153889		-3.266439		-14.162857		95.465207		0.007833		1.769100		1.842344		73.615500		-7.177501		10.531095		-134.656589		27.523890		-6.912568		-0.003412		74.028167		1.219670		7.393037		-130.426115		30.599001		-17.342431		-0.981433		-51.487503		0.547705		-2.806184		34.424836		0.510824		-3.909760		84.260153		-21.716010		27.692482		61.787993		68.139719		-38.364746		10.998253		42.746920		84.773688		-12.500506		16.979845		73.836208		109.211165		-16.546610		23.734502		88.311964		
1.156667		-3.315485		-14.374383		95.360373		0.007778		1.769474		1.840452		73.571434		-7.145911		10.603400		-134.557930		27.511263		-6.896524		-0.071624		73.935425		1.158301		7.262218		-130.349749		30.610831		-17.470200		-0.969462		-51.337131		0.439215		-2.830661		34.526292		0.581966		-3.902187		85.514019		-21.566582		28.133787		61.946650		67.971311		-38.154232		10.886442		42.665673		85.987106		-12.368941		17.378693		73.800982		109.085666		-16.570646		23.615389		88.323034		
1.159444		-3.342745		-14.633450		95.286715		0.007736		1.769885		1.838538		73.564038		-7.123039		10.634960		-134.431066		27.507966		-6.879263		-0.116618		73.879426		1.104384		7.157464		-130.246467		30.629037		-17.562508		-0.960519		-51.136429		0.371339		-2.860550		34.648912		0.612384		-3.894476		86.689407		-21.313042		28.361827		62.120687		67.851283		-38.013134		10.764955		42.602282		87.136736		-12.156416		17.584494		73.749947		108.996376		-16.625106		23.510005		88.307797		
1.162222		-3.392250		-14.841140		95.150458		0.007686		1.770307		1.836593		73.509702		-7.061379		10.708795		-134.329356		27.461272		-6.871149		-0.202943		73.772677		1.024483		7.002766		-130.172669		30.602576		-17.749507		-0.951553		-50.987432		0.245663		-2.853863		34.734373		0.698343		-3.883109		88.024577		-21.223705		28.959981		62.216700		67.583291		-37.701697		10.575301		42.527921		88.398163		-12.083418		18.088301		73.679114		108.772588		-16.754540		23.315014		88.288240		
1.165000		-3.378903		-15.148521		95.112942		0.007612		1.770759		1.834656		73.527857		-7.041635		10.697031		-134.186515		27.461527		-6.860187		-0.229200		73.757503		0.975823		6.925027		-130.034953		30.615199		-17.811585		-0.945073		-50.730936		0.228893		-2.877704		34.840538		0.693730		-3.873283		89.125983		-20.882106		28.995370		62.406776		67.505555		-37.608727		10.431131		42.490485		89.485520		-11.808324		18.133680		73.622576		108.709902		-16.856836		23.213751		88.243671		
1.167778		-3.361390		-15.394961		95.015327		0.007564		1.771129		1.832689		73.507955		-6.973957		10.687115		-134.064173		27.395334		-6.884580		-0.316707		73.721434		0.890949		6.851252		-129.978064		30.557397		-18.008543		-0.933596		-50.528668		0.157089		-2.831493		34.931045		0.768118		-3.851259		90.477564		-20.784528		29.573000		62.435366		67.275008		-37.234054		10.201224		42.474331		90.778987		-11.738228		18.675668		73.501760		108.510273		-17.075141		23.003450		88.182913		
1.170556		-3.316344		-15.712247		94.995652		0.007481		1.771593		1.830651		73.513728		-6.949968		10.629043		-133.913995		27.382955		-6.894782		-0.349268		73.722424		0.843024		6.811615		-129.843698		30.548432		-18.083662		-0.924575		-50.250152		0.167796		-2.826930		35.032387		0.764787		-3.833690		91.601115		-20.469716		29.649595		62.567108		67.213579		-37.086949		10.044500		42.469407		91.897959		-11.497475		18.787201		73.406539		108.469855		-17.214121		22.904156		88.124365		
1.173333		-3.244594		-15.981073		94.961711		0.007409		1.771983		1.828627		73.488349		-6.910356		10.530304		-133.777540		27.330879		-6.943037		-0.420890		73.717317		0.784412		6.816582		-129.788502		30.488683		-18.245168		-0.909469		-50.012352		0.169133		-2.764770		35.120476		0.810767		-3.803634		92.891576		-20.295795		30.053436		62.578776		67.086201		-36.744591		9.836056		42.504041		93.157390		-11.380556		19.228321		73.271888		108.391607		-17.433344		22.762115		88.054684		
1.176111		-3.165499		-16.270180		94.962611		0.007301		1.772476		1.826509		73.448000		-6.897926		10.415068		-133.619185		27.307495		-6.980459		-0.472798		73.705611		0.746490		6.829348		-129.685811		30.454523		-18.358062		-0.893740		-49.752083		0.204722		-2.735297		35.210166		0.824090		-3.773029		94.085898		-20.029104		30.245498		62.631371		67.009653		-36.509893		9.657261		42.538097		94.338915		-11.198882		19.479565		73.147148		108.389514		-17.617859		22.680030		87.995725		
1.178889		-3.078266		-16.559029		94.971075		0.007203		1.773036		1.824350		73.381612		-6.889144		10.290368		-133.443771		27.280967		-7.017396		-0.525946		73.680763		0.707107		6.847586		-129.562979		30.414890		-18.471935		-0.878041		-49.489839		0.248567		-2.710946		35.255093		0.847520		-3.742300		95.270247		-19.773472		30.461086		62.697130		66.936307		-36.264332		9.483934		42.584789		95.525028		-11.044630		19.738258		73.036787		108.409766		-17.798130		22.609053		87.941472		
1.181667		-3.007136		-16.857390		94.976720		0.007030		1.773533		1.822151		73.343884		-6.902494		10.172756		-133.298224		27.271526		-7.037404		-0.561815		73.670761		0.697390		6.855469		-129.463722		30.408392		-18.569028		-0.865336		-49.212325		0.289898		-2.683722		35.360049		0.866170		-3.709322		96.447039		-19.486916		30.606993		62.724122		66.892387		-36.085699		9.351183		42.620868		96.713188		-10.851993		19.962867		72.884338		108.483816		-17.918553		22.562688		87.889004		
